G04*
G04 #@! TF.GenerationSoftware,Altium Limited,Altium Designer,23.8.1 (32)*
G04*
G04 Layer_Physical_Order=4*
G04 Layer_Color=16711680*
%FSLAX44Y44*%
%MOMM*%
G71*
G04*
G04 #@! TF.SameCoordinates,14F6A229-880D-4016-A75C-DA76C30DB968*
G04*
G04*
G04 #@! TF.FilePolarity,Positive*
G04*
G01*
G75*
%ADD11C,0.2540*%
%ADD14C,0.3000*%
%ADD61C,1.0000*%
%ADD62C,0.8000*%
%ADD64C,0.6000*%
%ADD67C,1.1250*%
%ADD68C,1.0670*%
%ADD69C,3.2000*%
%ADD70C,0.7000*%
%ADD71C,0.6000*%
D11*
X921750Y798500D02*
X946500D01*
X1035000Y832500D02*
X1035500D01*
X1045948Y822052D01*
Y799698D02*
Y822052D01*
X1001500Y755250D02*
X1045948Y799698D01*
X877750Y720000D02*
X913000Y755250D01*
X1001500D01*
X877750Y706750D02*
Y720000D01*
D14*
X913926Y788824D02*
X914500Y788250D01*
X913926Y788824D02*
Y790945D01*
X913500Y791371D02*
X913926Y790945D01*
X913500Y791371D02*
Y820500D01*
D61*
X939500Y535500D02*
X977500D01*
D62*
X1035500Y775500D02*
X1045250Y785250D01*
X1064000D01*
D64*
X839000Y747500D02*
Y764500D01*
X841500Y767000D01*
D67*
X1126500Y562000D02*
D03*
X799750Y816750D02*
D03*
D68*
X1060200Y816150D02*
D03*
X1009400Y805990D02*
D03*
Y826310D02*
D03*
D69*
X1115000Y537500D02*
D03*
X815000D02*
D03*
Y837500D02*
D03*
X1115000D02*
D03*
D70*
X921750Y798500D02*
D03*
X946500D02*
D03*
D71*
X913500Y820500D02*
D03*
X914500Y788250D02*
D03*
X1035000Y832500D02*
D03*
X1064000Y785250D02*
D03*
X1035500Y775500D02*
D03*
X839000Y747500D02*
D03*
X877750Y706750D02*
D03*
X841500Y767000D02*
D03*
X977500Y535500D02*
D03*
X939500D02*
D03*
M02*
