G04*
G04 #@! TF.GenerationSoftware,Altium Limited,Altium Designer,23.8.1 (32)*
G04*
G04 Layer_Color=2752767*
%FSLAX44Y44*%
%MOMM*%
G71*
G04*
G04 #@! TF.SameCoordinates,14F6A229-880D-4016-A75C-DA76C30DB968*
G04*
G04*
G04 #@! TF.FilePolarity,Positive*
G04*
G01*
G75*
%ADD73C,0.1270*%
%ADD74C,0.1693*%
D73*
X1126500Y556920D02*
X1129040Y559460D01*
X1131580D01*
X1129040Y562000D01*
X1131580Y564540D01*
X1129040D01*
X1126500Y567080D01*
X1123960Y564540D01*
X1121420D01*
X1123960Y562000D01*
X1121420Y559460D01*
X1123960D01*
X1126500Y556920D01*
X799750Y811670D02*
X802290Y814210D01*
X804830D01*
X802290Y816750D01*
X804830Y819290D01*
X802290D01*
X799750Y821830D01*
X797210Y819290D01*
X794670D01*
X797210Y816750D01*
X794670Y814210D01*
X797210D01*
X799750Y811670D01*
X1055120Y811070D02*
Y821230D01*
X1065280D01*
Y811070D01*
X1055120D01*
X1004320Y800910D02*
Y811070D01*
X1014480D01*
Y800910D01*
X1004320D01*
Y821230D02*
Y831390D01*
X1014480D01*
Y821230D01*
X1004320D01*
X908420Y815420D02*
X910960Y820500D01*
X908420Y825580D01*
X913500Y823040D01*
X918580Y825580D01*
X916040Y820500D01*
X918580Y815420D01*
X913500Y817960D01*
X908420Y815420D01*
X916670Y793420D02*
X919210Y798500D01*
X916670Y803580D01*
X921750Y801040D01*
X926830Y803580D01*
X924290Y798500D01*
X926830Y793420D01*
X921750Y795960D01*
X916670Y793420D01*
X909420Y783170D02*
X911960Y788250D01*
X909420Y793330D01*
X914500Y790790D01*
X919580Y793330D01*
X917040Y788250D01*
X919580Y783170D01*
X914500Y785710D01*
X909420Y783170D01*
X1029920Y827420D02*
X1032460Y832500D01*
X1029920Y837580D01*
X1035000Y835040D01*
X1040080Y837580D01*
X1037540Y832500D01*
X1040080Y827420D01*
X1035000Y829960D01*
X1029920Y827420D01*
X1058920Y780170D02*
X1061460Y785250D01*
X1058920Y790330D01*
X1064000Y787790D01*
X1069080Y790330D01*
X1066540Y785250D01*
X1069080Y780170D01*
X1064000Y782710D01*
X1058920Y780170D01*
X1030420Y770420D02*
X1032960Y775500D01*
X1030420Y780580D01*
X1035500Y778040D01*
X1040580Y780580D01*
X1038040Y775500D01*
X1040580Y770420D01*
X1035500Y772960D01*
X1030420Y770420D01*
X833920Y742420D02*
X836460Y747500D01*
X833920Y752580D01*
X839000Y750040D01*
X844080Y752580D01*
X841540Y747500D01*
X844080Y742420D01*
X839000Y744960D01*
X833920Y742420D01*
X872670Y701670D02*
X875210Y706750D01*
X872670Y711830D01*
X877750Y709290D01*
X882830Y711830D01*
X880290Y706750D01*
X882830Y701670D01*
X877750Y704210D01*
X872670Y701670D01*
X836420Y761920D02*
X838960Y767000D01*
X836420Y772080D01*
X841500Y769540D01*
X846580Y772080D01*
X844040Y767000D01*
X846580Y761920D01*
X841500Y764460D01*
X836420Y761920D01*
X941420Y793420D02*
X943960Y798500D01*
X941420Y803580D01*
X946500Y801040D01*
X951580Y803580D01*
X949040Y798500D01*
X951580Y793420D01*
X946500Y795960D01*
X941420Y793420D01*
X972420Y530420D02*
X974960Y535500D01*
X972420Y540580D01*
X977500Y538040D01*
X982580Y540580D01*
X980040Y535500D01*
X982580Y530420D01*
X977500Y532960D01*
X972420Y530420D01*
X934420D02*
X936960Y535500D01*
X934420Y540580D01*
X939500Y538040D01*
X944580Y540580D01*
X942040Y535500D01*
X944580Y530420D01*
X939500Y532960D01*
X934420Y530420D01*
D74*
X1120080Y537500D02*
G03*
X1120080Y537500I-5080J0D01*
G01*
X820080D02*
G03*
X820080Y537500I-5080J0D01*
G01*
Y837500D02*
G03*
X820080Y837500I-5080J0D01*
G01*
X1120080D02*
G03*
X1120080Y837500I-5080J0D01*
G01*
M02*
