G04*
G04 #@! TF.GenerationSoftware,Altium Limited,Altium Designer,23.8.1 (32)*
G04*
G04 Layer_Color=128*
%FSLAX44Y44*%
%MOMM*%
G71*
G04*
G04 #@! TF.SameCoordinates,14F6A229-880D-4016-A75C-DA76C30DB968*
G04*
G04*
G04 #@! TF.FilePolarity,Positive*
G04*
G01*
G75*
%ADD73C,0.1270*%
D73*
X947750Y850250D02*
X950250D01*
X949000Y849000D02*
Y851500D01*
X923000Y851000D02*
X925500D01*
X924250Y849750D02*
Y852250D01*
X825500Y595500D02*
X828000D01*
X826750Y594250D02*
Y596750D01*
X825250Y575750D02*
X827750D01*
X826500Y574500D02*
Y577000D01*
X798250Y574750D02*
X800750D01*
X799500Y573500D02*
Y576000D01*
X797750Y596900D02*
X800250D01*
X799000Y595650D02*
Y598150D01*
X846750Y595000D02*
X849250D01*
X848000Y593750D02*
Y596250D01*
X846750Y575750D02*
X849250D01*
X848000Y574500D02*
Y577000D01*
X796750Y774100D02*
X799250D01*
X798000Y772850D02*
Y775350D01*
X796750Y751950D02*
X799250D01*
X798000Y750700D02*
Y753200D01*
X796750Y729800D02*
X799250D01*
X798000Y728550D02*
Y731050D01*
X796750Y707650D02*
X799250D01*
X798000Y706400D02*
Y708900D01*
X797250Y685500D02*
X799750D01*
X798500Y684250D02*
Y686750D01*
X797750Y663350D02*
X800250D01*
X799000Y662100D02*
Y664600D01*
X797750Y641200D02*
X800250D01*
X799000Y639950D02*
Y642450D01*
X797250Y619050D02*
X799750D01*
X798500Y617800D02*
Y620300D01*
X876500Y676000D02*
X879000D01*
X877750Y674750D02*
Y677250D01*
X825750Y721500D02*
X828250D01*
X827000Y720250D02*
Y722750D01*
X839500Y732500D02*
X842000D01*
X840750Y731250D02*
Y733750D01*
X941500Y821250D02*
X944000D01*
X942750Y820000D02*
Y822500D01*
X928250Y821500D02*
X930750D01*
X929500Y820250D02*
Y822750D01*
X984750Y783000D02*
X987250D01*
X986000Y781750D02*
Y784250D01*
X970500Y783250D02*
X973000D01*
X971750Y782000D02*
Y784500D01*
X984000Y798500D02*
X986500D01*
X985250Y797250D02*
Y799750D01*
X970500Y799000D02*
X973000D01*
X971750Y797750D02*
Y800250D01*
X994750Y521250D02*
X997250D01*
X996000Y520000D02*
Y522500D01*
X1038750Y522250D02*
X1041250D01*
X1040000Y521000D02*
Y523500D01*
X1079000Y524250D02*
X1081500D01*
X1080250Y523000D02*
Y525500D01*
X1106750Y566250D02*
X1109250D01*
X1108000Y565000D02*
Y567500D01*
X1126000Y589250D02*
X1128500D01*
X1127250Y588000D02*
Y590500D01*
X1123250Y620750D02*
X1125750D01*
X1124500Y619500D02*
Y622000D01*
X1122750Y649000D02*
X1125250D01*
X1124000Y647750D02*
Y650250D01*
X1019000Y691250D02*
X1021500D01*
X1020250Y690000D02*
Y692500D01*
X1028750Y705500D02*
X1031250D01*
X1030000Y704250D02*
Y706750D01*
X960500Y611750D02*
X963000D01*
X961750Y610500D02*
Y613000D01*
X938000Y611000D02*
X940500D01*
X939250Y609750D02*
Y612250D01*
X960000Y626750D02*
X962500D01*
X961250Y625500D02*
Y628000D01*
X937750D02*
X940250D01*
X939000Y626750D02*
Y629250D01*
X882500Y611250D02*
X885000D01*
X883750Y610000D02*
Y612500D01*
X882250Y630750D02*
X884750D01*
X883500Y629500D02*
Y632000D01*
X797250Y796250D02*
X799750D01*
X798500Y795000D02*
Y797500D01*
X1053250Y732750D02*
X1055750D01*
X1054500Y731500D02*
Y734000D01*
X1033500Y732250D02*
X1036000D01*
X1034750Y731000D02*
Y733500D01*
X1064750Y748250D02*
X1067250D01*
X1066000Y747000D02*
Y749500D01*
X1128000Y803500D02*
X1130500D01*
X1129250Y802250D02*
Y804750D01*
X1087500Y838500D02*
X1090000D01*
X1088750Y837250D02*
Y839750D01*
X1071750Y852750D02*
X1074250D01*
X1073000Y851500D02*
Y854000D01*
X1101250Y781750D02*
X1103750D01*
X1102500Y780500D02*
Y783000D01*
X1128750Y780000D02*
X1131250D01*
X1130000Y778750D02*
Y781250D01*
X1064750Y766500D02*
X1067250D01*
X1066000Y765250D02*
Y767750D01*
X1100750Y803500D02*
X1103250D01*
X1102000Y802250D02*
Y804750D01*
X1012471Y846750D02*
X1014971D01*
X1013721Y845500D02*
Y848000D01*
X913750Y766250D02*
X916250D01*
X915000Y765000D02*
Y767500D01*
X888250Y727750D02*
X890750D01*
X889500Y726500D02*
Y729000D01*
X879500Y767500D02*
X882000D01*
X880750Y766250D02*
Y768750D01*
X989500Y665250D02*
X992000D01*
X990750Y664000D02*
Y666500D01*
X1021250Y831500D02*
X1023750D01*
X1022500Y830250D02*
Y832750D01*
X928000Y771750D02*
X930500D01*
X929250Y770500D02*
Y773000D01*
X1000750Y737000D02*
X1003250D01*
X1002000Y735750D02*
Y738250D01*
X824250Y805250D02*
X826750D01*
X825500Y804000D02*
Y806500D01*
X939000Y548750D02*
X941500D01*
X940250Y547500D02*
Y550000D01*
X910250Y779500D02*
X912750D01*
X911500Y778250D02*
Y780750D01*
X1060500Y644250D02*
X1063000D01*
X1061750Y643000D02*
Y645500D01*
X1084250Y632250D02*
X1086750D01*
X1085500Y631000D02*
Y633500D01*
X1073250Y632500D02*
X1075750D01*
X1074500Y631250D02*
Y633750D01*
X969250Y649750D02*
X971750D01*
X970500Y648500D02*
Y651000D01*
X1084250Y738000D02*
X1086750D01*
X1085500Y736750D02*
Y739250D01*
X1060250Y652500D02*
X1062750D01*
X1061500Y651250D02*
Y653750D01*
X1098500Y639000D02*
X1101000D01*
X1099750Y637750D02*
Y640250D01*
X1050000Y618500D02*
X1052500D01*
X1051250Y617250D02*
Y619750D01*
X1060000Y672000D02*
X1062500D01*
X1061250Y670750D02*
Y673250D01*
X1076000Y671750D02*
X1078500D01*
X1077250Y670500D02*
Y673000D01*
X841750Y701500D02*
X844250D01*
X843000Y700250D02*
Y702750D01*
X824750Y675250D02*
X827250D01*
X826000Y674000D02*
Y676500D01*
X871000Y656500D02*
X873500D01*
X872250Y655250D02*
Y657750D01*
X875250Y694750D02*
X877750D01*
X876500Y693500D02*
Y696000D01*
X956250Y648250D02*
X958750D01*
X957500Y647000D02*
Y649500D01*
X823250Y784500D02*
X825750D01*
X824500Y783250D02*
Y785750D01*
X918270Y732010D02*
X920270D01*
X919270Y731010D02*
Y733010D01*
X929270Y732010D02*
X931270D01*
X930270Y731010D02*
Y733010D01*
X940270Y732010D02*
X942270D01*
X941270Y731010D02*
Y733010D01*
X951270Y732010D02*
X953270D01*
X952270Y731010D02*
Y733010D01*
X962270Y732010D02*
X964270D01*
X963270Y731010D02*
Y733010D01*
X918270Y721010D02*
X920270D01*
X919270Y720010D02*
Y722010D01*
X929270Y721010D02*
X931270D01*
X930270Y720010D02*
Y722010D01*
X940270Y721010D02*
X942270D01*
X941270Y720010D02*
Y722010D01*
X951270Y721010D02*
X953270D01*
X952270Y720010D02*
Y722010D01*
X962270Y721010D02*
X964270D01*
X963270Y720010D02*
Y722010D01*
X918270Y710010D02*
X920270D01*
X919270Y709010D02*
Y711010D01*
X929270Y710010D02*
X931270D01*
X930270Y709010D02*
Y711010D01*
X940270Y710010D02*
X942270D01*
X941270Y709010D02*
Y711010D01*
X951270Y710010D02*
X953270D01*
X952270Y709010D02*
Y711010D01*
X962270Y710010D02*
X964270D01*
X963270Y709010D02*
Y711010D01*
X918270Y699010D02*
X920270D01*
X919270Y698010D02*
Y700010D01*
X929270Y699010D02*
X931270D01*
X930270Y698010D02*
Y700010D01*
X940270Y699010D02*
X942270D01*
X941270Y698010D02*
Y700010D01*
X951270Y699010D02*
X953270D01*
X952270Y698010D02*
Y700010D01*
X962270Y699010D02*
X964270D01*
X963270Y698010D02*
Y700010D01*
X918270Y688010D02*
X920270D01*
X919270Y687010D02*
Y689010D01*
X929270Y688010D02*
X931270D01*
X930270Y687010D02*
Y689010D01*
X940270Y688010D02*
X942270D01*
X941270Y687010D02*
Y689010D01*
X951270Y688010D02*
X953270D01*
X952270Y687010D02*
Y689010D01*
X962270Y688010D02*
X964270D01*
X963270Y687010D02*
Y689010D01*
X864000Y805000D02*
X866000D01*
X865000Y804000D02*
Y806000D01*
X864000Y794000D02*
X866000D01*
X865000Y793000D02*
Y795000D01*
X875000Y794000D02*
X877000D01*
X876000Y793000D02*
Y795000D01*
X875000Y805000D02*
X877000D01*
X876000Y804000D02*
Y806000D01*
M02*
