G04*
G04 #@! TF.GenerationSoftware,Altium Limited,Altium Designer,23.8.1 (32)*
G04*
G04 Layer_Color=2752767*
%FSLAX44Y44*%
%MOMM*%
G71*
G04*
G04 #@! TF.SameCoordinates,14F6A229-880D-4016-A75C-DA76C30DB968*
G04*
G04*
G04 #@! TF.FilePolarity,Positive*
G04*
G01*
G75*
%ADD73C,0.1270*%
D73*
X943920Y845170D02*
X946460Y850250D01*
X943920Y855330D01*
X949000Y852790D01*
X954080Y855330D01*
X951540Y850250D01*
X954080Y845170D01*
X949000Y847710D01*
X943920Y845170D01*
X919170Y845920D02*
X921710Y851000D01*
X919170Y856080D01*
X924250Y853540D01*
X929330Y856080D01*
X926790Y851000D01*
X929330Y845920D01*
X924250Y848460D01*
X919170Y845920D01*
X821670Y590420D02*
X824210Y595500D01*
X821670Y600580D01*
X826750Y598040D01*
X831830Y600580D01*
X829290Y595500D01*
X831830Y590420D01*
X826750Y592960D01*
X821670Y590420D01*
X821420Y570670D02*
X823960Y575750D01*
X821420Y580830D01*
X826500Y578290D01*
X831580Y580830D01*
X829040Y575750D01*
X831580Y570670D01*
X826500Y573210D01*
X821420Y570670D01*
X794420Y569670D02*
X796960Y574750D01*
X794420Y579830D01*
X799500Y577290D01*
X804580Y579830D01*
X802040Y574750D01*
X804580Y569670D01*
X799500Y572210D01*
X794420Y569670D01*
X793920Y591820D02*
X796460Y596900D01*
X793920Y601980D01*
X799000Y599440D01*
X804080Y601980D01*
X801540Y596900D01*
X804080Y591820D01*
X799000Y594360D01*
X793920Y591820D01*
X842920Y589920D02*
X845460Y595000D01*
X842920Y600080D01*
X848000Y597540D01*
X853080Y600080D01*
X850540Y595000D01*
X853080Y589920D01*
X848000Y592460D01*
X842920Y589920D01*
X842920Y570670D02*
X845460Y575750D01*
X842920Y580830D01*
X848000Y578290D01*
X853080Y580830D01*
X850540Y575750D01*
X853080Y570670D01*
X848000Y573210D01*
X842920Y570670D01*
X792920Y769020D02*
X795460Y774100D01*
X792920Y779180D01*
X798000Y776640D01*
X803080Y779180D01*
X800540Y774100D01*
X803080Y769020D01*
X798000Y771560D01*
X792920Y769020D01*
Y746870D02*
X795460Y751950D01*
X792920Y757030D01*
X798000Y754490D01*
X803080Y757030D01*
X800540Y751950D01*
X803080Y746870D01*
X798000Y749410D01*
X792920Y746870D01*
Y724720D02*
X795460Y729800D01*
X792920Y734880D01*
X798000Y732340D01*
X803080Y734880D01*
X800540Y729800D01*
X803080Y724720D01*
X798000Y727260D01*
X792920Y724720D01*
Y702570D02*
X795460Y707650D01*
X792920Y712730D01*
X798000Y710190D01*
X803080Y712730D01*
X800540Y707650D01*
X803080Y702570D01*
X798000Y705110D01*
X792920Y702570D01*
X793420Y680420D02*
X795960Y685500D01*
X793420Y690580D01*
X798500Y688040D01*
X803580Y690580D01*
X801040Y685500D01*
X803580Y680420D01*
X798500Y682960D01*
X793420Y680420D01*
X793920Y658270D02*
X796460Y663350D01*
X793920Y668430D01*
X799000Y665890D01*
X804080Y668430D01*
X801540Y663350D01*
X804080Y658270D01*
X799000Y660810D01*
X793920Y658270D01*
Y636120D02*
X796460Y641200D01*
X793920Y646280D01*
X799000Y643740D01*
X804080Y646280D01*
X801540Y641200D01*
X804080Y636120D01*
X799000Y638660D01*
X793920Y636120D01*
X793420Y613970D02*
X795960Y619050D01*
X793420Y624130D01*
X798500Y621590D01*
X803580Y624130D01*
X801040Y619050D01*
X803580Y613970D01*
X798500Y616510D01*
X793420Y613970D01*
X872670Y670920D02*
X875210Y676000D01*
X872670Y681080D01*
X877750Y678540D01*
X882830Y681080D01*
X880290Y676000D01*
X882830Y670920D01*
X877750Y673460D01*
X872670Y670920D01*
X821920Y716420D02*
X824460Y721500D01*
X821920Y726580D01*
X827000Y724040D01*
X832080Y726580D01*
X829540Y721500D01*
X832080Y716420D01*
X827000Y718960D01*
X821920Y716420D01*
X835670Y727420D02*
X838210Y732500D01*
X835670Y737580D01*
X840750Y735040D01*
X845830Y737580D01*
X843290Y732500D01*
X845830Y727420D01*
X840750Y729960D01*
X835670Y727420D01*
X937670Y816170D02*
X940210Y821250D01*
X937670Y826330D01*
X942750Y823790D01*
X947830Y826330D01*
X945290Y821250D01*
X947830Y816170D01*
X942750Y818710D01*
X937670Y816170D01*
X924420Y816420D02*
X926960Y821500D01*
X924420Y826580D01*
X929500Y824040D01*
X934580Y826580D01*
X932040Y821500D01*
X934580Y816420D01*
X929500Y818960D01*
X924420Y816420D01*
X980920Y777920D02*
X983460Y783000D01*
X980920Y788080D01*
X986000Y785540D01*
X991080Y788080D01*
X988540Y783000D01*
X991080Y777920D01*
X986000Y780460D01*
X980920Y777920D01*
X966670Y778170D02*
X969210Y783250D01*
X966670Y788330D01*
X971750Y785790D01*
X976830Y788330D01*
X974290Y783250D01*
X976830Y778170D01*
X971750Y780710D01*
X966670Y778170D01*
X980170Y793420D02*
X982710Y798500D01*
X980170Y803580D01*
X985250Y801040D01*
X990330Y803580D01*
X987790Y798500D01*
X990330Y793420D01*
X985250Y795960D01*
X980170Y793420D01*
X966670Y793920D02*
X969210Y799000D01*
X966670Y804080D01*
X971750Y801540D01*
X976830Y804080D01*
X974290Y799000D01*
X976830Y793920D01*
X971750Y796460D01*
X966670Y793920D01*
X990920Y516170D02*
X993460Y521250D01*
X990920Y526330D01*
X996000Y523790D01*
X1001080Y526330D01*
X998540Y521250D01*
X1001080Y516170D01*
X996000Y518710D01*
X990920Y516170D01*
X1034920Y517170D02*
X1037460Y522250D01*
X1034920Y527330D01*
X1040000Y524790D01*
X1045080Y527330D01*
X1042540Y522250D01*
X1045080Y517170D01*
X1040000Y519710D01*
X1034920Y517170D01*
X1075170Y519170D02*
X1077710Y524250D01*
X1075170Y529330D01*
X1080250Y526790D01*
X1085330Y529330D01*
X1082790Y524250D01*
X1085330Y519170D01*
X1080250Y521710D01*
X1075170Y519170D01*
X1102920Y561170D02*
X1105460Y566250D01*
X1102920Y571330D01*
X1108000Y568790D01*
X1113080Y571330D01*
X1110540Y566250D01*
X1113080Y561170D01*
X1108000Y563710D01*
X1102920Y561170D01*
X1122170Y584170D02*
X1124710Y589250D01*
X1122170Y594330D01*
X1127250Y591790D01*
X1132330Y594330D01*
X1129790Y589250D01*
X1132330Y584170D01*
X1127250Y586710D01*
X1122170Y584170D01*
X1119420Y615670D02*
X1121960Y620750D01*
X1119420Y625830D01*
X1124500Y623290D01*
X1129580Y625830D01*
X1127040Y620750D01*
X1129580Y615670D01*
X1124500Y618210D01*
X1119420Y615670D01*
X1118920Y643920D02*
X1121460Y649000D01*
X1118920Y654080D01*
X1124000Y651540D01*
X1129080Y654080D01*
X1126540Y649000D01*
X1129080Y643920D01*
X1124000Y646460D01*
X1118920Y643920D01*
X1015170Y686170D02*
X1017710Y691250D01*
X1015170Y696330D01*
X1020250Y693790D01*
X1025330Y696330D01*
X1022790Y691250D01*
X1025330Y686170D01*
X1020250Y688710D01*
X1015170Y686170D01*
X1024920Y700420D02*
X1027460Y705500D01*
X1024920Y710580D01*
X1030000Y708040D01*
X1035080Y710580D01*
X1032540Y705500D01*
X1035080Y700420D01*
X1030000Y702960D01*
X1024920Y700420D01*
X956670Y606670D02*
X959210Y611750D01*
X956670Y616830D01*
X961750Y614290D01*
X966830Y616830D01*
X964290Y611750D01*
X966830Y606670D01*
X961750Y609210D01*
X956670Y606670D01*
X934170Y605920D02*
X936710Y611000D01*
X934170Y616080D01*
X939250Y613540D01*
X944330Y616080D01*
X941790Y611000D01*
X944330Y605920D01*
X939250Y608460D01*
X934170Y605920D01*
X956170Y621670D02*
X958710Y626750D01*
X956170Y631830D01*
X961250Y629290D01*
X966330Y631830D01*
X963790Y626750D01*
X966330Y621670D01*
X961250Y624210D01*
X956170Y621670D01*
X933920Y622920D02*
X936460Y628000D01*
X933920Y633080D01*
X939000Y630540D01*
X944080Y633080D01*
X941540Y628000D01*
X944080Y622920D01*
X939000Y625460D01*
X933920Y622920D01*
X878670Y606170D02*
X881210Y611250D01*
X878670Y616330D01*
X883750Y613790D01*
X888830Y616330D01*
X886290Y611250D01*
X888830Y606170D01*
X883750Y608710D01*
X878670Y606170D01*
X878420Y625670D02*
X880960Y630750D01*
X878420Y635830D01*
X883500Y633290D01*
X888580Y635830D01*
X886040Y630750D01*
X888580Y625670D01*
X883500Y628210D01*
X878420Y625670D01*
X793420Y791170D02*
X795960Y796250D01*
X793420Y801330D01*
X798500Y798790D01*
X803580Y801330D01*
X801040Y796250D01*
X803580Y791170D01*
X798500Y793710D01*
X793420Y791170D01*
X1049420Y727670D02*
X1051960Y732750D01*
X1049420Y737830D01*
X1054500Y735290D01*
X1059580Y737830D01*
X1057040Y732750D01*
X1059580Y727670D01*
X1054500Y730210D01*
X1049420Y727670D01*
X1029670Y727170D02*
X1032210Y732250D01*
X1029670Y737330D01*
X1034750Y734790D01*
X1039830Y737330D01*
X1037290Y732250D01*
X1039830Y727170D01*
X1034750Y729710D01*
X1029670Y727170D01*
X1060920Y743170D02*
X1063460Y748250D01*
X1060920Y753330D01*
X1066000Y750790D01*
X1071080Y753330D01*
X1068540Y748250D01*
X1071080Y743170D01*
X1066000Y745710D01*
X1060920Y743170D01*
X1124170Y798420D02*
X1126710Y803500D01*
X1124170Y808580D01*
X1129250Y806040D01*
X1134330Y808580D01*
X1131790Y803500D01*
X1134330Y798420D01*
X1129250Y800960D01*
X1124170Y798420D01*
X1083670Y833420D02*
X1086210Y838500D01*
X1083670Y843580D01*
X1088750Y841040D01*
X1093830Y843580D01*
X1091290Y838500D01*
X1093830Y833420D01*
X1088750Y835960D01*
X1083670Y833420D01*
X1067920Y847670D02*
X1070460Y852750D01*
X1067920Y857830D01*
X1073000Y855290D01*
X1078080Y857830D01*
X1075540Y852750D01*
X1078080Y847670D01*
X1073000Y850210D01*
X1067920Y847670D01*
X1097420Y776670D02*
X1099960Y781750D01*
X1097420Y786830D01*
X1102500Y784290D01*
X1107580Y786830D01*
X1105040Y781750D01*
X1107580Y776670D01*
X1102500Y779210D01*
X1097420Y776670D01*
X1124920Y774920D02*
X1127460Y780000D01*
X1124920Y785080D01*
X1130000Y782540D01*
X1135080Y785080D01*
X1132540Y780000D01*
X1135080Y774920D01*
X1130000Y777460D01*
X1124920Y774920D01*
X1060920Y761420D02*
X1063460Y766500D01*
X1060920Y771580D01*
X1066000Y769040D01*
X1071080Y771580D01*
X1068540Y766500D01*
X1071080Y761420D01*
X1066000Y763960D01*
X1060920Y761420D01*
X1096920Y798420D02*
X1099460Y803500D01*
X1096920Y808580D01*
X1102000Y806040D01*
X1107080Y808580D01*
X1104540Y803500D01*
X1107080Y798420D01*
X1102000Y800960D01*
X1096920Y798420D01*
X1008641Y841670D02*
X1011181Y846750D01*
X1008641Y851830D01*
X1013721Y849290D01*
X1018801Y851830D01*
X1016261Y846750D01*
X1018801Y841670D01*
X1013721Y844210D01*
X1008641Y841670D01*
X909920Y761170D02*
X912460Y766250D01*
X909920Y771330D01*
X915000Y768790D01*
X920080Y771330D01*
X917540Y766250D01*
X920080Y761170D01*
X915000Y763710D01*
X909920Y761170D01*
X884420Y722670D02*
X886960Y727750D01*
X884420Y732830D01*
X889500Y730290D01*
X894580Y732830D01*
X892040Y727750D01*
X894580Y722670D01*
X889500Y725210D01*
X884420Y722670D01*
X875670Y762420D02*
X878210Y767500D01*
X875670Y772580D01*
X880750Y770040D01*
X885830Y772580D01*
X883290Y767500D01*
X885830Y762420D01*
X880750Y764960D01*
X875670Y762420D01*
X985670Y660170D02*
X988210Y665250D01*
X985670Y670330D01*
X990750Y667790D01*
X995830Y670330D01*
X993290Y665250D01*
X995830Y660170D01*
X990750Y662710D01*
X985670Y660170D01*
X1017420Y826420D02*
X1019960Y831500D01*
X1017420Y836580D01*
X1022500Y834040D01*
X1027580Y836580D01*
X1025040Y831500D01*
X1027580Y826420D01*
X1022500Y828960D01*
X1017420Y826420D01*
X924170Y766670D02*
X926710Y771750D01*
X924170Y776830D01*
X929250Y774290D01*
X934330Y776830D01*
X931790Y771750D01*
X934330Y766670D01*
X929250Y769210D01*
X924170Y766670D01*
X996920Y731920D02*
X999460Y737000D01*
X996920Y742080D01*
X1002000Y739540D01*
X1007080Y742080D01*
X1004540Y737000D01*
X1007080Y731920D01*
X1002000Y734460D01*
X996920Y731920D01*
X820420Y800170D02*
X822960Y805250D01*
X820420Y810330D01*
X825500Y807790D01*
X830580Y810330D01*
X828040Y805250D01*
X830580Y800170D01*
X825500Y802710D01*
X820420Y800170D01*
X935170Y543670D02*
X937710Y548750D01*
X935170Y553830D01*
X940250Y551290D01*
X945330Y553830D01*
X942790Y548750D01*
X945330Y543670D01*
X940250Y546210D01*
X935170Y543670D01*
X906420Y774420D02*
X908960Y779500D01*
X906420Y784580D01*
X911500Y782040D01*
X916580Y784580D01*
X914040Y779500D01*
X916580Y774420D01*
X911500Y776960D01*
X906420Y774420D01*
X1056670Y639170D02*
X1059210Y644250D01*
X1056670Y649330D01*
X1061750Y646790D01*
X1066830Y649330D01*
X1064290Y644250D01*
X1066830Y639170D01*
X1061750Y641710D01*
X1056670Y639170D01*
X1080420Y627170D02*
X1082960Y632250D01*
X1080420Y637330D01*
X1085500Y634790D01*
X1090580Y637330D01*
X1088040Y632250D01*
X1090580Y627170D01*
X1085500Y629710D01*
X1080420Y627170D01*
X1069420Y627420D02*
X1071960Y632500D01*
X1069420Y637580D01*
X1074500Y635040D01*
X1079580Y637580D01*
X1077040Y632500D01*
X1079580Y627420D01*
X1074500Y629960D01*
X1069420Y627420D01*
X965420Y644670D02*
X967960Y649750D01*
X965420Y654830D01*
X970500Y652290D01*
X975580Y654830D01*
X973040Y649750D01*
X975580Y644670D01*
X970500Y647210D01*
X965420Y644670D01*
X1080420Y732920D02*
X1082960Y738000D01*
X1080420Y743080D01*
X1085500Y740540D01*
X1090580Y743080D01*
X1088040Y738000D01*
X1090580Y732920D01*
X1085500Y735460D01*
X1080420Y732920D01*
X1056420Y647420D02*
X1058960Y652500D01*
X1056420Y657580D01*
X1061500Y655040D01*
X1066580Y657580D01*
X1064040Y652500D01*
X1066580Y647420D01*
X1061500Y649960D01*
X1056420Y647420D01*
X1094670Y633920D02*
X1097210Y639000D01*
X1094670Y644080D01*
X1099750Y641540D01*
X1104830Y644080D01*
X1102290Y639000D01*
X1104830Y633920D01*
X1099750Y636460D01*
X1094670Y633920D01*
X1046170Y613420D02*
X1048710Y618500D01*
X1046170Y623580D01*
X1051250Y621040D01*
X1056330Y623580D01*
X1053790Y618500D01*
X1056330Y613420D01*
X1051250Y615960D01*
X1046170Y613420D01*
X1056170Y666920D02*
X1058710Y672000D01*
X1056170Y677080D01*
X1061250Y674540D01*
X1066330Y677080D01*
X1063790Y672000D01*
X1066330Y666920D01*
X1061250Y669460D01*
X1056170Y666920D01*
X1072170Y666670D02*
X1074710Y671750D01*
X1072170Y676830D01*
X1077250Y674290D01*
X1082330Y676830D01*
X1079790Y671750D01*
X1082330Y666670D01*
X1077250Y669210D01*
X1072170Y666670D01*
X837920Y696420D02*
X840460Y701500D01*
X837920Y706580D01*
X843000Y704040D01*
X848080Y706580D01*
X845540Y701500D01*
X848080Y696420D01*
X843000Y698960D01*
X837920Y696420D01*
X820920Y670170D02*
X823460Y675250D01*
X820920Y680330D01*
X826000Y677790D01*
X831080Y680330D01*
X828540Y675250D01*
X831080Y670170D01*
X826000Y672710D01*
X820920Y670170D01*
X867170Y651420D02*
X869710Y656500D01*
X867170Y661580D01*
X872250Y659040D01*
X877330Y661580D01*
X874790Y656500D01*
X877330Y651420D01*
X872250Y653960D01*
X867170Y651420D01*
X871420Y689670D02*
X873960Y694750D01*
X871420Y699830D01*
X876500Y697290D01*
X881580Y699830D01*
X879040Y694750D01*
X881580Y689670D01*
X876500Y692210D01*
X871420Y689670D01*
X952420Y643170D02*
X954960Y648250D01*
X952420Y653330D01*
X957500Y650790D01*
X962580Y653330D01*
X960040Y648250D01*
X962580Y643170D01*
X957500Y645710D01*
X952420Y643170D01*
X819420Y779420D02*
X821960Y784500D01*
X819420Y789580D01*
X824500Y787040D01*
X829580Y789580D01*
X827040Y784500D01*
X829580Y779420D01*
X824500Y781960D01*
X819420Y779420D01*
X919270Y726930D02*
X914190Y737090D01*
X924350D01*
X919270Y726930D01*
X930270D02*
X925190Y737090D01*
X935350D01*
X930270Y726930D01*
X941270D02*
X936190Y737090D01*
X946350D01*
X941270Y726930D01*
X952270D02*
X947190Y737090D01*
X957350D01*
X952270Y726930D01*
X963270D02*
X958190Y737090D01*
X968350D01*
X963270Y726930D01*
X919270Y715930D02*
X914190Y726090D01*
X924350D01*
X919270Y715930D01*
X930270D02*
X925190Y726090D01*
X935350D01*
X930270Y715930D01*
X941270D02*
X936190Y726090D01*
X946350D01*
X941270Y715930D01*
X952270D02*
X947190Y726090D01*
X957350D01*
X952270Y715930D01*
X963270D02*
X958190Y726090D01*
X968350D01*
X963270Y715930D01*
X919270Y704930D02*
X914190Y715090D01*
X924350D01*
X919270Y704930D01*
X930270D02*
X925190Y715090D01*
X935350D01*
X930270Y704930D01*
X941270D02*
X936190Y715090D01*
X946350D01*
X941270Y704930D01*
X952270D02*
X947190Y715090D01*
X957350D01*
X952270Y704930D01*
X963270D02*
X958190Y715090D01*
X968350D01*
X963270Y704930D01*
X919270Y693930D02*
X914190Y704090D01*
X924350D01*
X919270Y693930D01*
X930270D02*
X925190Y704090D01*
X935350D01*
X930270Y693930D01*
X941270D02*
X936190Y704090D01*
X946350D01*
X941270Y693930D01*
X952270D02*
X947190Y704090D01*
X957350D01*
X952270Y693930D01*
X963270D02*
X958190Y704090D01*
X968350D01*
X963270Y693930D01*
X919270Y682930D02*
X914190Y693090D01*
X924350D01*
X919270Y682930D01*
X930270D02*
X925190Y693090D01*
X935350D01*
X930270Y682930D01*
X941270D02*
X936190Y693090D01*
X946350D01*
X941270Y682930D01*
X952270D02*
X947190Y693090D01*
X957350D01*
X952270Y682930D01*
X963270D02*
X958190Y693090D01*
X968350D01*
X963270Y682930D01*
X865000Y799920D02*
X859920Y810080D01*
X870080D01*
X865000Y799920D01*
Y788920D02*
X859920Y799080D01*
X870080D01*
X865000Y788920D01*
X876000D02*
X870920Y799080D01*
X881080D01*
X876000Y788920D01*
Y799920D02*
X870920Y810080D01*
X881080D01*
X876000Y799920D01*
M02*
