G04*
G04 #@! TF.GenerationSoftware,Altium Limited,Altium Designer,23.8.1 (32)*
G04*
G04 Layer_Physical_Order=3*
G04 Layer_Color=16440176*
%FSLAX44Y44*%
%MOMM*%
G71*
G04*
G04 #@! TF.SameCoordinates,14F6A229-880D-4016-A75C-DA76C30DB968*
G04*
G04*
G04 #@! TF.FilePolarity,Positive*
G04*
G01*
G75*
%ADD67C,1.1250*%
%ADD68C,1.0670*%
%ADD69C,3.2000*%
%ADD70C,0.7000*%
%ADD71C,0.6000*%
G36*
X1118794Y856291D02*
X1120007Y856050D01*
X1121243Y856050D01*
X1122456Y856291D01*
X1123039Y856500D01*
X1127350Y854190D01*
X1127350Y854189D01*
Y854190D01*
X1129119Y852421D01*
X1131898Y848260D01*
X1133813Y843638D01*
X1134789Y838731D01*
X1134789Y836229D01*
X1134789Y532346D01*
X1134789Y532346D01*
X1134789Y531253D01*
X1134363Y529109D01*
X1133526Y527090D01*
X1132312Y525273D01*
X1130113Y523073D01*
X1126757Y520831D01*
X1123029Y519287D01*
X1119072Y518500D01*
X807984D01*
X806335Y518828D01*
X804782Y519472D01*
X803384Y520406D01*
X802479Y521311D01*
X802479Y521311D01*
X800710Y523079D01*
X797930Y527240D01*
X796015Y531862D01*
X795039Y536769D01*
X795039Y539271D01*
Y664000D01*
X793539Y665500D01*
X793539Y665500D01*
X793989Y665996D01*
X794296Y666456D01*
X794733Y667110D01*
X795245Y668346D01*
X795506Y669659D01*
X795539Y670328D01*
X795539Y810065D01*
X796809Y810798D01*
X797193Y810576D01*
X798878Y810125D01*
X800622D01*
X802307Y810576D01*
X803818Y811449D01*
X805051Y812682D01*
X805923Y814193D01*
X806375Y815878D01*
Y817622D01*
X805923Y819307D01*
X805051Y820818D01*
X803818Y822051D01*
X802307Y822924D01*
X800622Y823375D01*
X798878D01*
X797193Y822924D01*
X796809Y822702D01*
X795539Y823435D01*
Y848000D01*
X803096Y855557D01*
X803788Y856019D01*
X804557Y856338D01*
X805373Y856500D01*
X805789Y856500D01*
X1118211Y856500D01*
X1118794Y856291D01*
D02*
G37*
G36*
X1230754Y1627291D02*
X1231309Y1627181D01*
X1231967Y1627050D01*
X1233204Y1627050D01*
X1234417Y1627291D01*
X1235000Y1627500D01*
X1239310Y1625190D01*
Y1625189D01*
X1239310Y1625189D01*
X1241079Y1623421D01*
X1243859Y1619260D01*
X1245774Y1614638D01*
X1246750Y1609731D01*
X1246750Y1607229D01*
X1246750Y1303346D01*
X1246750Y1303346D01*
X1246750Y1302253D01*
X1246323Y1300110D01*
X1245487Y1298090D01*
X1244273Y1296273D01*
X1242073Y1294073D01*
X1238718Y1291831D01*
X1234990Y1290287D01*
X1231032Y1289500D01*
X919945D01*
X918296Y1289828D01*
X916742Y1290471D01*
X915344Y1291405D01*
X914439Y1292310D01*
X914439Y1292310D01*
X912671Y1294079D01*
X909891Y1298240D01*
X907976Y1302862D01*
X907000Y1307769D01*
X907000Y1310271D01*
Y1435000D01*
X905500Y1436500D01*
X905950Y1436996D01*
X906257Y1437456D01*
X906694Y1438109D01*
X907206Y1439346D01*
X907467Y1440659D01*
X907500Y1441328D01*
X907500Y1619000D01*
X914762Y1626263D01*
X914763D01*
X915726Y1627004D01*
X915749Y1627019D01*
X916518Y1627338D01*
X917334Y1627500D01*
X917750Y1627500D01*
X1230172Y1627500D01*
X1230754Y1627291D01*
D02*
G37*
%LPC*%
G36*
X1035796Y836500D02*
X1034204D01*
X1032734Y835891D01*
X1031609Y834766D01*
X1031000Y833296D01*
Y831704D01*
X1031609Y830234D01*
X1032734Y829109D01*
X1034204Y828500D01*
X1035796D01*
X1037266Y829109D01*
X1038391Y830234D01*
X1039000Y831704D01*
Y833296D01*
X1038391Y834766D01*
X1037266Y835891D01*
X1035796Y836500D01*
D02*
G37*
G36*
X1116674Y854500D02*
X1113326D01*
X1110041Y853847D01*
X1106947Y852565D01*
X1104163Y850705D01*
X1101795Y848337D01*
X1099935Y845553D01*
X1098653Y842459D01*
X1098000Y839174D01*
Y835826D01*
X1098653Y832541D01*
X1099935Y829447D01*
X1101795Y826663D01*
X1104163Y824295D01*
X1106947Y822435D01*
X1110041Y821153D01*
X1113326Y820500D01*
X1116674D01*
X1119959Y821153D01*
X1123053Y822435D01*
X1125837Y824295D01*
X1128205Y826663D01*
X1130065Y829447D01*
X1131347Y832541D01*
X1132000Y835826D01*
Y839174D01*
X1131347Y842459D01*
X1130065Y845553D01*
X1128205Y848337D01*
X1125837Y850705D01*
X1123053Y852565D01*
X1119959Y853847D01*
X1116674Y854500D01*
D02*
G37*
G36*
X816674D02*
X813326D01*
X810041Y853847D01*
X806947Y852565D01*
X804163Y850705D01*
X801795Y848337D01*
X799935Y845553D01*
X798653Y842459D01*
X798000Y839174D01*
Y835826D01*
X798653Y832541D01*
X799935Y829447D01*
X801795Y826663D01*
X804163Y824295D01*
X806947Y822435D01*
X810041Y821153D01*
X813326Y820500D01*
X816674D01*
X819959Y821153D01*
X823053Y822435D01*
X825837Y824295D01*
X828205Y826663D01*
X830065Y829447D01*
X831347Y832541D01*
X832000Y835826D01*
Y839174D01*
X831347Y842459D01*
X830065Y845553D01*
X828205Y848337D01*
X825837Y850705D01*
X823053Y852565D01*
X819959Y853847D01*
X816674Y854500D01*
D02*
G37*
G36*
X1010660Y832645D02*
X1008140D01*
X1005811Y831681D01*
X1004029Y829899D01*
X1003065Y827570D01*
Y825050D01*
X1004029Y822721D01*
X1005811Y820939D01*
X1008140Y819975D01*
X1010660D01*
X1012989Y820939D01*
X1014771Y822721D01*
X1015735Y825050D01*
Y827570D01*
X1014771Y829899D01*
X1012989Y831681D01*
X1010660Y832645D01*
D02*
G37*
G36*
X914296Y824500D02*
X912704D01*
X911234Y823891D01*
X910109Y822766D01*
X909500Y821296D01*
Y819704D01*
X910109Y818234D01*
X911234Y817109D01*
X912704Y816500D01*
X914296D01*
X915766Y817109D01*
X916891Y818234D01*
X917500Y819704D01*
Y821296D01*
X916891Y822766D01*
X915766Y823891D01*
X914296Y824500D01*
D02*
G37*
G36*
X1061460Y822485D02*
X1058940D01*
X1056611Y821521D01*
X1054829Y819738D01*
X1053865Y817410D01*
Y814890D01*
X1054829Y812561D01*
X1056611Y810779D01*
X1058940Y809815D01*
X1061460D01*
X1063789Y810779D01*
X1065571Y812561D01*
X1066535Y814890D01*
Y817410D01*
X1065571Y819738D01*
X1063789Y821521D01*
X1061460Y822485D01*
D02*
G37*
G36*
X1010660Y812325D02*
X1008140D01*
X1005811Y811361D01*
X1004029Y809578D01*
X1003065Y807250D01*
Y804730D01*
X1004029Y802402D01*
X1005811Y800620D01*
X1008140Y799655D01*
X1010660D01*
X1012989Y800620D01*
X1014771Y802402D01*
X1015735Y804730D01*
Y807250D01*
X1014771Y809578D01*
X1012989Y811361D01*
X1010660Y812325D01*
D02*
G37*
G36*
X947395Y803000D02*
X945605D01*
X943951Y802315D01*
X942685Y801049D01*
X942000Y799395D01*
Y797605D01*
X942685Y795951D01*
X943951Y794685D01*
X945605Y794000D01*
X947395D01*
X949049Y794685D01*
X950315Y795951D01*
X951000Y797605D01*
Y799395D01*
X950315Y801049D01*
X949049Y802315D01*
X947395Y803000D01*
D02*
G37*
G36*
X922645D02*
X920855D01*
X919201Y802315D01*
X917935Y801049D01*
X917250Y799395D01*
Y797605D01*
X917935Y795951D01*
X919201Y794685D01*
X920855Y794000D01*
X922645D01*
X924299Y794685D01*
X925565Y795951D01*
X926250Y797605D01*
Y799395D01*
X925565Y801049D01*
X924299Y802315D01*
X922645Y803000D01*
D02*
G37*
G36*
X915296Y792250D02*
X913704D01*
X912234Y791641D01*
X911109Y790516D01*
X910500Y789046D01*
Y787454D01*
X911109Y785984D01*
X912234Y784859D01*
X913704Y784250D01*
X915296D01*
X916766Y784859D01*
X917891Y785984D01*
X918500Y787454D01*
Y789046D01*
X917891Y790516D01*
X916766Y791641D01*
X915296Y792250D01*
D02*
G37*
G36*
X1064796Y789250D02*
X1063204D01*
X1061734Y788641D01*
X1060609Y787516D01*
X1060000Y786046D01*
Y784454D01*
X1060609Y782984D01*
X1061734Y781859D01*
X1063204Y781250D01*
X1064796D01*
X1066266Y781859D01*
X1067391Y782984D01*
X1068000Y784454D01*
Y786046D01*
X1067391Y787516D01*
X1066266Y788641D01*
X1064796Y789250D01*
D02*
G37*
G36*
X1036296Y779500D02*
X1034704D01*
X1033234Y778891D01*
X1032109Y777766D01*
X1031500Y776296D01*
Y774704D01*
X1032109Y773234D01*
X1033234Y772109D01*
X1034704Y771500D01*
X1036296D01*
X1037766Y772109D01*
X1038891Y773234D01*
X1039500Y774704D01*
Y776296D01*
X1038891Y777766D01*
X1037766Y778891D01*
X1036296Y779500D01*
D02*
G37*
G36*
X842296Y771000D02*
X840704D01*
X839234Y770391D01*
X838109Y769266D01*
X837500Y767796D01*
Y766204D01*
X838109Y764734D01*
X839234Y763609D01*
X840704Y763000D01*
X842296D01*
X843766Y763609D01*
X844891Y764734D01*
X845500Y766204D01*
Y767796D01*
X844891Y769266D01*
X843766Y770391D01*
X842296Y771000D01*
D02*
G37*
G36*
X839796Y751500D02*
X838204D01*
X836734Y750891D01*
X835609Y749766D01*
X835000Y748296D01*
Y746704D01*
X835609Y745234D01*
X836734Y744109D01*
X838204Y743500D01*
X839796D01*
X841266Y744109D01*
X842391Y745234D01*
X843000Y746704D01*
Y748296D01*
X842391Y749766D01*
X841266Y750891D01*
X839796Y751500D01*
D02*
G37*
G36*
X878546Y710750D02*
X876954D01*
X875484Y710141D01*
X874359Y709016D01*
X873750Y707546D01*
Y705954D01*
X874359Y704484D01*
X875484Y703359D01*
X876954Y702750D01*
X878546D01*
X880016Y703359D01*
X881141Y704484D01*
X881750Y705954D01*
Y707546D01*
X881141Y709016D01*
X880016Y710141D01*
X878546Y710750D01*
D02*
G37*
G36*
X1127372Y568625D02*
X1125628D01*
X1123943Y568173D01*
X1122432Y567301D01*
X1121199Y566068D01*
X1120327Y564557D01*
X1119875Y562872D01*
Y561128D01*
X1120327Y559443D01*
X1121199Y557932D01*
X1122432Y556699D01*
X1123943Y555826D01*
X1125628Y555375D01*
X1127372D01*
X1129057Y555826D01*
X1130568Y556699D01*
X1131801Y557932D01*
X1132673Y559443D01*
X1133125Y561128D01*
Y562872D01*
X1132673Y564557D01*
X1131801Y566068D01*
X1130568Y567301D01*
X1129057Y568173D01*
X1127372Y568625D01*
D02*
G37*
G36*
X978296Y539500D02*
X976704D01*
X975234Y538891D01*
X974109Y537766D01*
X973500Y536296D01*
Y534704D01*
X974109Y533234D01*
X975234Y532109D01*
X976704Y531500D01*
X978296D01*
X979766Y532109D01*
X980891Y533234D01*
X981500Y534704D01*
Y536296D01*
X980891Y537766D01*
X979766Y538891D01*
X978296Y539500D01*
D02*
G37*
G36*
X940296D02*
X938704D01*
X937234Y538891D01*
X936109Y537766D01*
X935500Y536296D01*
Y534704D01*
X936109Y533234D01*
X937234Y532109D01*
X938704Y531500D01*
X940296D01*
X941766Y532109D01*
X942891Y533234D01*
X943500Y534704D01*
Y536296D01*
X942891Y537766D01*
X941766Y538891D01*
X940296Y539500D01*
D02*
G37*
G36*
X1116674Y554500D02*
X1113326D01*
X1110041Y553847D01*
X1106947Y552565D01*
X1104163Y550705D01*
X1101795Y548337D01*
X1099935Y545552D01*
X1098653Y542459D01*
X1098000Y539174D01*
Y535826D01*
X1098653Y532541D01*
X1099935Y529448D01*
X1101795Y526663D01*
X1104163Y524295D01*
X1106947Y522435D01*
X1110041Y521153D01*
X1113326Y520500D01*
X1116674D01*
X1119959Y521153D01*
X1123053Y522435D01*
X1125837Y524295D01*
X1128205Y526663D01*
X1130065Y529448D01*
X1131347Y532541D01*
X1132000Y535826D01*
Y539174D01*
X1131347Y542459D01*
X1130065Y545552D01*
X1128205Y548337D01*
X1125837Y550705D01*
X1123053Y552565D01*
X1119959Y553847D01*
X1116674Y554500D01*
D02*
G37*
G36*
X816674D02*
X813326D01*
X810041Y553847D01*
X806947Y552565D01*
X804163Y550705D01*
X801795Y548337D01*
X799935Y545552D01*
X798653Y542459D01*
X798000Y539174D01*
Y535826D01*
X798653Y532541D01*
X799935Y529448D01*
X801795Y526663D01*
X804163Y524295D01*
X806947Y522435D01*
X810041Y521153D01*
X813326Y520500D01*
X816674D01*
X819959Y521153D01*
X823053Y522435D01*
X825837Y524295D01*
X828205Y526663D01*
X830065Y529448D01*
X831347Y532541D01*
X832000Y535826D01*
Y539174D01*
X831347Y542459D01*
X830065Y545552D01*
X828205Y548337D01*
X825837Y550705D01*
X823053Y552565D01*
X819959Y553847D01*
X816674Y554500D01*
D02*
G37*
%LPD*%
D67*
X1126500Y562000D02*
D03*
X799750Y816750D02*
D03*
D68*
X1060200Y816150D02*
D03*
X1009400Y805990D02*
D03*
Y826310D02*
D03*
D69*
X1115000Y537500D02*
D03*
X815000D02*
D03*
Y837500D02*
D03*
X1115000D02*
D03*
D70*
X921750Y798500D02*
D03*
X946500D02*
D03*
D71*
X913500Y820500D02*
D03*
X914500Y788250D02*
D03*
X1035000Y832500D02*
D03*
X1064000Y785250D02*
D03*
X1035500Y775500D02*
D03*
X839000Y747500D02*
D03*
X877750Y706750D02*
D03*
X841500Y767000D02*
D03*
X977500Y535500D02*
D03*
X939500D02*
D03*
M02*
