G04*
G04 #@! TF.GenerationSoftware,Altium Limited,Altium Designer,23.8.1 (32)*
G04*
G04 Layer_Color=8388736*
%FSLAX44Y44*%
%MOMM*%
G71*
G04*
G04 #@! TF.SameCoordinates,14F6A229-880D-4016-A75C-DA76C30DB968*
G04*
G04*
G04 #@! TF.FilePolarity,Negative*
G04*
G01*
G75*
%ADD21R,1.3000X1.6500*%
%ADD22R,1.9000X1.8000*%
%ADD23R,1.9000X1.0000*%
%ADD24R,1.5500X1.4250*%
%ADD25R,1.3800X0.4500*%
%ADD26R,1.2500X1.2500*%
%ADD27R,3.5000X1.2500*%
G04:AMPARAMS|DCode=37|XSize=0.8032mm|YSize=0.9032mm|CornerRadius=0.1766mm|HoleSize=0mm|Usage=FLASHONLY|Rotation=0.000|XOffset=0mm|YOffset=0mm|HoleType=Round|Shape=RoundedRectangle|*
%AMROUNDEDRECTD37*
21,1,0.8032,0.5500,0,0,0.0*
21,1,0.4500,0.9032,0,0,0.0*
1,1,0.3532,0.2250,-0.2750*
1,1,0.3532,-0.2250,-0.2750*
1,1,0.3532,-0.2250,0.2750*
1,1,0.3532,0.2250,0.2750*
%
%ADD37ROUNDEDRECTD37*%
%ADD38C,1.0662*%
%ADD39O,1.0032X0.4532*%
%ADD40O,0.4532X1.0032*%
%ADD41R,5.8032X5.8032*%
G04:AMPARAMS|DCode=42|XSize=1.0032mm|YSize=1.2032mm|CornerRadius=0.2016mm|HoleSize=0mm|Usage=FLASHONLY|Rotation=90.000|XOffset=0mm|YOffset=0mm|HoleType=Round|Shape=RoundedRectangle|*
%AMROUNDEDRECTD42*
21,1,1.0032,0.8000,0,0,90.0*
21,1,0.6000,1.2032,0,0,90.0*
1,1,0.4032,0.4000,0.3000*
1,1,0.4032,0.4000,-0.3000*
1,1,0.4032,-0.4000,-0.3000*
1,1,0.4032,-0.4000,0.3000*
%
%ADD42ROUNDEDRECTD42*%
G04:AMPARAMS|DCode=43|XSize=0.8032mm|YSize=0.9032mm|CornerRadius=0.1766mm|HoleSize=0mm|Usage=FLASHONLY|Rotation=90.000|XOffset=0mm|YOffset=0mm|HoleType=Round|Shape=RoundedRectangle|*
%AMROUNDEDRECTD43*
21,1,0.8032,0.5500,0,0,90.0*
21,1,0.4500,0.9032,0,0,90.0*
1,1,0.3532,0.2750,0.2250*
1,1,0.3532,0.2750,-0.2250*
1,1,0.3532,-0.2750,-0.2250*
1,1,0.3532,-0.2750,0.2250*
%
%ADD43ROUNDEDRECTD43*%
G04:AMPARAMS|DCode=44|XSize=1.6032mm|YSize=1.9032mm|CornerRadius=0.2766mm|HoleSize=0mm|Usage=FLASHONLY|Rotation=270.000|XOffset=0mm|YOffset=0mm|HoleType=Round|Shape=RoundedRectangle|*
%AMROUNDEDRECTD44*
21,1,1.6032,1.3500,0,0,270.0*
21,1,1.0500,1.9032,0,0,270.0*
1,1,0.5532,-0.6750,-0.5250*
1,1,0.5532,-0.6750,0.5250*
1,1,0.5532,0.6750,0.5250*
1,1,0.5532,0.6750,-0.5250*
%
%ADD44ROUNDEDRECTD44*%
G04:AMPARAMS|DCode=45|XSize=1.6032mm|YSize=1.9032mm|CornerRadius=0.2766mm|HoleSize=0mm|Usage=FLASHONLY|Rotation=180.000|XOffset=0mm|YOffset=0mm|HoleType=Round|Shape=RoundedRectangle|*
%AMROUNDEDRECTD45*
21,1,1.6032,1.3500,0,0,180.0*
21,1,1.0500,1.9032,0,0,180.0*
1,1,0.5532,-0.5250,0.6750*
1,1,0.5532,0.5250,0.6750*
1,1,0.5532,0.5250,-0.6750*
1,1,0.5532,-0.5250,-0.6750*
%
%ADD45ROUNDEDRECTD45*%
%ADD46R,0.5532X1.0032*%
%ADD47R,1.0532X0.5532*%
%ADD48R,2.8032X2.9032*%
G04:AMPARAMS|DCode=49|XSize=1.5032mm|YSize=1.3032mm|CornerRadius=0.1566mm|HoleSize=0mm|Usage=FLASHONLY|Rotation=0.000|XOffset=0mm|YOffset=0mm|HoleType=Round|Shape=RoundedRectangle|*
%AMROUNDEDRECTD49*
21,1,1.5032,0.9900,0,0,0.0*
21,1,1.1900,1.3032,0,0,0.0*
1,1,0.3132,0.5950,-0.4950*
1,1,0.3132,-0.5950,-0.4950*
1,1,0.3132,-0.5950,0.4950*
1,1,0.3132,0.5950,0.4950*
%
%ADD49ROUNDEDRECTD49*%
G04:AMPARAMS|DCode=50|XSize=1.0032mm|YSize=1.2032mm|CornerRadius=0.2016mm|HoleSize=0mm|Usage=FLASHONLY|Rotation=180.000|XOffset=0mm|YOffset=0mm|HoleType=Round|Shape=RoundedRectangle|*
%AMROUNDEDRECTD50*
21,1,1.0032,0.8000,0,0,180.0*
21,1,0.6000,1.2032,0,0,180.0*
1,1,0.4032,-0.3000,0.4000*
1,1,0.4032,0.3000,0.4000*
1,1,0.4032,0.3000,-0.4000*
1,1,0.4032,-0.3000,-0.4000*
%
%ADD50ROUNDEDRECTD50*%
%ADD51R,0.8532X1.9032*%
%ADD52R,1.2032X3.1032*%
%ADD53C,1.3282*%
%ADD54C,1.2702*%
%ADD55C,3.4032*%
%ADD56C,0.9032*%
%ADD57C,0.8032*%
%ADD58C,0.7032*%
D21*
X1126500Y691500D02*
D03*
Y759000D02*
D03*
D22*
Y713750D02*
D03*
D23*
Y740750D02*
D03*
D24*
X1100750Y700375D02*
D03*
Y750125D02*
D03*
D25*
X1099900Y712250D02*
D03*
Y718750D02*
D03*
Y725250D02*
D03*
Y731750D02*
D03*
Y738250D02*
D03*
D26*
X1050000Y630000D02*
D03*
X1027100D02*
D03*
X1004200D02*
D03*
D27*
X1027100Y564100D02*
D03*
D37*
X1053971Y845750D02*
D03*
X1043971D02*
D03*
X1033971Y846250D02*
D03*
X1023971D02*
D03*
X935000Y780000D02*
D03*
X925000D02*
D03*
X947500D02*
D03*
X957500D02*
D03*
X842500Y692500D02*
D03*
X832500D02*
D03*
X865000D02*
D03*
X855000D02*
D03*
X855000Y707500D02*
D03*
X865000D02*
D03*
X970000Y660000D02*
D03*
X980000D02*
D03*
X915000Y757500D02*
D03*
X905000D02*
D03*
X859500Y768000D02*
D03*
X869500D02*
D03*
X1073250Y708000D02*
D03*
X1063250D02*
D03*
X1000000Y675000D02*
D03*
X990000D02*
D03*
X1000000Y690000D02*
D03*
X990000D02*
D03*
D38*
X1047500Y822500D02*
D03*
X1034800D02*
D03*
X1022100D02*
D03*
X1047500Y809800D02*
D03*
X1034800D02*
D03*
X1022100D02*
D03*
D39*
X975270Y717510D02*
D03*
Y722510D02*
D03*
X907270Y737510D02*
D03*
Y732510D02*
D03*
Y727510D02*
D03*
Y722510D02*
D03*
Y717510D02*
D03*
Y712510D02*
D03*
Y707510D02*
D03*
Y702510D02*
D03*
Y697510D02*
D03*
Y692510D02*
D03*
Y687510D02*
D03*
Y682510D02*
D03*
X975270D02*
D03*
Y687510D02*
D03*
Y692510D02*
D03*
Y697510D02*
D03*
Y702510D02*
D03*
Y707510D02*
D03*
Y712510D02*
D03*
Y727510D02*
D03*
Y732510D02*
D03*
Y737510D02*
D03*
D40*
X913770Y676010D02*
D03*
X918770D02*
D03*
X923770D02*
D03*
X928770D02*
D03*
X933770D02*
D03*
X938770D02*
D03*
X943770D02*
D03*
X948770D02*
D03*
X953770D02*
D03*
X958770D02*
D03*
X963770D02*
D03*
X968770D02*
D03*
Y744010D02*
D03*
X963770D02*
D03*
X958770D02*
D03*
X953770D02*
D03*
X948770D02*
D03*
X943770D02*
D03*
X938770D02*
D03*
X933770D02*
D03*
X928770D02*
D03*
X923770D02*
D03*
X918770D02*
D03*
X913770D02*
D03*
D41*
X941270Y710010D02*
D03*
D42*
X876250Y748000D02*
D03*
Y733000D02*
D03*
X1061250Y696500D02*
D03*
Y681500D02*
D03*
X1075750Y696500D02*
D03*
Y681500D02*
D03*
D43*
X888750Y735500D02*
D03*
Y745500D02*
D03*
X1100000Y603250D02*
D03*
Y593250D02*
D03*
Y630000D02*
D03*
Y620000D02*
D03*
X834500Y794250D02*
D03*
Y784250D02*
D03*
X903000Y779500D02*
D03*
Y789500D02*
D03*
X890000Y697500D02*
D03*
Y687500D02*
D03*
X935000Y767500D02*
D03*
Y757500D02*
D03*
X835000Y815000D02*
D03*
Y805000D02*
D03*
X992500Y743750D02*
D03*
Y733750D02*
D03*
D44*
X1080000Y597140D02*
D03*
Y620000D02*
D03*
D45*
X1026070Y650000D02*
D03*
X1048930D02*
D03*
D46*
X883000Y819500D02*
D03*
X878000D02*
D03*
X873000D02*
D03*
X868000D02*
D03*
X863000D02*
D03*
X858000D02*
D03*
X883000Y779500D02*
D03*
X878000D02*
D03*
X873000D02*
D03*
X868000D02*
D03*
X863000D02*
D03*
X858000D02*
D03*
D47*
X850750Y812000D02*
D03*
Y807000D02*
D03*
Y802000D02*
D03*
Y797000D02*
D03*
Y792000D02*
D03*
Y787000D02*
D03*
X890250Y812000D02*
D03*
Y807000D02*
D03*
Y802000D02*
D03*
Y797000D02*
D03*
Y792000D02*
D03*
Y787000D02*
D03*
D48*
X870500Y799500D02*
D03*
D49*
X837500Y675000D02*
D03*
Y656000D02*
D03*
X860500Y675000D02*
D03*
Y656000D02*
D03*
D50*
X942500Y660000D02*
D03*
X957500D02*
D03*
D51*
X878750Y564000D02*
D03*
X891250D02*
D03*
X916250D02*
D03*
X928750D02*
D03*
X903750D02*
D03*
X941250D02*
D03*
D52*
X860250Y536000D02*
D03*
X959750D02*
D03*
D53*
X1126500Y562000D02*
D03*
X799750Y816750D02*
D03*
D54*
X1060200Y816150D02*
D03*
X1009400Y805990D02*
D03*
Y826310D02*
D03*
D55*
X1115000Y537500D02*
D03*
X815000D02*
D03*
Y837500D02*
D03*
X1115000D02*
D03*
D56*
X949000Y850250D02*
D03*
X924250Y851000D02*
D03*
X826750Y595500D02*
D03*
X826500Y575750D02*
D03*
X799500Y574750D02*
D03*
X799000Y596900D02*
D03*
X848000Y595000D02*
D03*
X848000Y575750D02*
D03*
X798000Y774100D02*
D03*
Y751950D02*
D03*
Y729800D02*
D03*
Y707650D02*
D03*
X798500Y685500D02*
D03*
X799000Y663350D02*
D03*
Y641200D02*
D03*
X798500Y619050D02*
D03*
X877750Y676000D02*
D03*
X827000Y721500D02*
D03*
X840750Y732500D02*
D03*
X942750Y821250D02*
D03*
X929500Y821500D02*
D03*
X986000Y783000D02*
D03*
X971750Y783250D02*
D03*
X985250Y798500D02*
D03*
X971750Y799000D02*
D03*
X996000Y521250D02*
D03*
X1040000Y522250D02*
D03*
X1080250Y524250D02*
D03*
X1108000Y566250D02*
D03*
X1127250Y589250D02*
D03*
X1124500Y620750D02*
D03*
X1124000Y649000D02*
D03*
X1020250Y691250D02*
D03*
X1030000Y705500D02*
D03*
X961750Y611750D02*
D03*
X939250Y611000D02*
D03*
X961250Y626750D02*
D03*
X939000Y628000D02*
D03*
X883750Y611250D02*
D03*
X883500Y630750D02*
D03*
X798500Y796250D02*
D03*
X1054500Y732750D02*
D03*
X1034750Y732250D02*
D03*
X1066000Y748250D02*
D03*
X1129250Y803500D02*
D03*
X1088750Y838500D02*
D03*
X1073000Y852750D02*
D03*
X1102500Y781750D02*
D03*
X1130000Y780000D02*
D03*
X1066000Y766500D02*
D03*
X1102000Y803500D02*
D03*
X921750Y798500D02*
D03*
X946500D02*
D03*
D57*
X1013721Y846750D02*
D03*
X913500Y820500D02*
D03*
X914500Y788250D02*
D03*
X915000Y766250D02*
D03*
X1035000Y832500D02*
D03*
X1064000Y785250D02*
D03*
X1035500Y775500D02*
D03*
X839000Y747500D02*
D03*
X889500Y727750D02*
D03*
X880750Y767500D02*
D03*
X990750Y665250D02*
D03*
X877750Y706750D02*
D03*
X1022500Y831500D02*
D03*
X841500Y767000D02*
D03*
X929250Y771750D02*
D03*
X1002000Y737000D02*
D03*
X825500Y805250D02*
D03*
X977500Y535500D02*
D03*
X939500D02*
D03*
X940250Y548750D02*
D03*
X911500Y779500D02*
D03*
X1061750Y644250D02*
D03*
X1085500Y632250D02*
D03*
X1074500Y632500D02*
D03*
X970500Y649750D02*
D03*
X1085500Y738000D02*
D03*
X1061500Y652500D02*
D03*
X1099750Y639000D02*
D03*
X1051250Y618500D02*
D03*
X1061250Y672000D02*
D03*
X1077250Y671750D02*
D03*
X843000Y701500D02*
D03*
X826000Y675250D02*
D03*
X872250Y656500D02*
D03*
X876500Y694750D02*
D03*
X957500Y648250D02*
D03*
X824500Y784500D02*
D03*
D58*
X919270Y732010D02*
D03*
X930270D02*
D03*
X941270D02*
D03*
X952270D02*
D03*
X963270D02*
D03*
X919270Y721010D02*
D03*
X930270D02*
D03*
X941270D02*
D03*
X952270D02*
D03*
X963270D02*
D03*
X919270Y710010D02*
D03*
X930270D02*
D03*
X941270D02*
D03*
X952270D02*
D03*
X963270D02*
D03*
X919270Y699010D02*
D03*
X930270D02*
D03*
X941270D02*
D03*
X952270D02*
D03*
X963270D02*
D03*
X919270Y688010D02*
D03*
X930270D02*
D03*
X941270D02*
D03*
X952270D02*
D03*
X963270D02*
D03*
X865000Y805000D02*
D03*
Y794000D02*
D03*
X876000D02*
D03*
Y805000D02*
D03*
M02*
