G04*
G04 #@! TF.GenerationSoftware,Altium Limited,Altium Designer,23.8.1 (32)*
G04*
G04 Layer_Color=128*
%FSLAX44Y44*%
%MOMM*%
G71*
G04*
G04 #@! TF.SameCoordinates,14F6A229-880D-4016-A75C-DA76C30DB968*
G04*
G04*
G04 #@! TF.FilePolarity,Positive*
G04*
G01*
G75*
%ADD73C,0.1270*%
D73*
X1120875Y562000D02*
X1132125D01*
X1126500Y556375D02*
Y567625D01*
X794125Y816750D02*
X805375D01*
X799750Y811125D02*
Y822375D01*
X1054865Y816150D02*
X1065535D01*
X1060200Y810815D02*
Y821485D01*
X1004065Y805990D02*
X1014735D01*
X1009400Y800655D02*
Y811325D01*
X1004065Y826310D02*
X1014735D01*
X1009400Y820975D02*
Y831645D01*
X1099000Y537500D02*
X1131000D01*
X1115000Y521500D02*
Y553500D01*
X799000Y537500D02*
X831000D01*
X815000Y521500D02*
Y553500D01*
X799000Y837500D02*
X831000D01*
X815000Y821500D02*
Y853500D01*
X1099000Y837500D02*
X1131000D01*
X1115000Y821500D02*
Y853500D01*
X912250Y820500D02*
X914750D01*
X913500Y819250D02*
Y821750D01*
X920500Y798500D02*
X923000D01*
X921750Y797250D02*
Y799750D01*
X913250Y788250D02*
X915750D01*
X914500Y787000D02*
Y789500D01*
X1033750Y832500D02*
X1036250D01*
X1035000Y831250D02*
Y833750D01*
X1062750Y785250D02*
X1065250D01*
X1064000Y784000D02*
Y786500D01*
X1034250Y775500D02*
X1036750D01*
X1035500Y774250D02*
Y776750D01*
X837750Y747500D02*
X840250D01*
X839000Y746250D02*
Y748750D01*
X876500Y706750D02*
X879000D01*
X877750Y705500D02*
Y708000D01*
X840250Y767000D02*
X842750D01*
X841500Y765750D02*
Y768250D01*
X945250Y798500D02*
X947750D01*
X946500Y797250D02*
Y799750D01*
X976250Y535500D02*
X978750D01*
X977500Y534250D02*
Y536750D01*
X938250Y535500D02*
X940750D01*
X939500Y534250D02*
Y536750D01*
M02*
