G04*
G04 #@! TF.GenerationSoftware,Altium Limited,Altium Designer,23.8.1 (32)*
G04*
G04 Layer_Physical_Order=2*
G04 Layer_Color=36540*
%FSLAX44Y44*%
%MOMM*%
G71*
G04*
G04 #@! TF.SameCoordinates,14F6A229-880D-4016-A75C-DA76C30DB968*
G04*
G04*
G04 #@! TF.FilePolarity,Positive*
G04*
G01*
G75*
%ADD67C,1.1250*%
%ADD68C,1.0670*%
%ADD69C,3.2000*%
%ADD70C,0.7000*%
%ADD71C,0.6000*%
%ADD72C,0.5000*%
G36*
X1119005Y856041D02*
X1120217Y855800D01*
X1121454Y855800D01*
X1122667Y856041D01*
X1123250Y856250D01*
X1127560Y853940D01*
X1127560Y853939D01*
Y853939D01*
X1129329Y852170D01*
X1132109Y848010D01*
X1134024Y843388D01*
X1135000Y838481D01*
X1135000Y835979D01*
X1135000Y532096D01*
X1135000Y532096D01*
X1135000Y531003D01*
X1134574Y528859D01*
X1133737Y526840D01*
X1132523Y525023D01*
X1130323Y522823D01*
X1126968Y520581D01*
X1123240Y519037D01*
X1119282Y518250D01*
X808195D01*
X806546Y518578D01*
X804992Y519221D01*
X803594Y520156D01*
X802690Y521060D01*
X802690Y521060D01*
X800920Y522830D01*
X798141Y526990D01*
X796226Y531612D01*
X795250Y536519D01*
X795250Y539021D01*
Y663750D01*
X793750Y665250D01*
X793750Y665250D01*
X794200Y665747D01*
X794507Y666206D01*
X794944Y666860D01*
X795456Y668096D01*
X795717Y669409D01*
X795750Y670078D01*
X795750Y810139D01*
X796850Y810775D01*
X797193Y810576D01*
X798878Y810125D01*
X800622D01*
X802307Y810576D01*
X803818Y811449D01*
X805051Y812682D01*
X805923Y814193D01*
X806375Y815878D01*
Y817622D01*
X805923Y819307D01*
X805051Y820818D01*
X803818Y822051D01*
X802307Y822924D01*
X800622Y823375D01*
X798878D01*
X797193Y822924D01*
X796850Y822726D01*
X795750Y823361D01*
Y847750D01*
X803307Y855307D01*
X803999Y855769D01*
X804768Y856088D01*
X805584Y856250D01*
X806000Y856250D01*
X1118421Y856250D01*
X1119005Y856041D01*
D02*
G37*
%LPC*%
G36*
X1035796Y836500D02*
X1034204D01*
X1032734Y835891D01*
X1031609Y834766D01*
X1031000Y833296D01*
Y831704D01*
X1031609Y830234D01*
X1032734Y829109D01*
X1034204Y828500D01*
X1035796D01*
X1037266Y829109D01*
X1038391Y830234D01*
X1039000Y831704D01*
Y833296D01*
X1038391Y834766D01*
X1037266Y835891D01*
X1035796Y836500D01*
D02*
G37*
G36*
X1116674Y854500D02*
X1113326D01*
X1110041Y853847D01*
X1106947Y852565D01*
X1104163Y850705D01*
X1101795Y848337D01*
X1099935Y845553D01*
X1098653Y842459D01*
X1098000Y839174D01*
Y835826D01*
X1098653Y832541D01*
X1099935Y829447D01*
X1101795Y826663D01*
X1104163Y824295D01*
X1106947Y822435D01*
X1110041Y821153D01*
X1113326Y820500D01*
X1116674D01*
X1119959Y821153D01*
X1123053Y822435D01*
X1125837Y824295D01*
X1128205Y826663D01*
X1130065Y829447D01*
X1131347Y832541D01*
X1132000Y835826D01*
Y839174D01*
X1131347Y842459D01*
X1130065Y845553D01*
X1128205Y848337D01*
X1125837Y850705D01*
X1123053Y852565D01*
X1119959Y853847D01*
X1116674Y854500D01*
D02*
G37*
G36*
X816674D02*
X813326D01*
X810041Y853847D01*
X806947Y852565D01*
X804163Y850705D01*
X801795Y848337D01*
X799935Y845553D01*
X798653Y842459D01*
X798000Y839174D01*
Y835826D01*
X798653Y832541D01*
X799935Y829447D01*
X801795Y826663D01*
X804163Y824295D01*
X806947Y822435D01*
X810041Y821153D01*
X813326Y820500D01*
X816674D01*
X819959Y821153D01*
X823053Y822435D01*
X825837Y824295D01*
X828205Y826663D01*
X830065Y829447D01*
X831347Y832541D01*
X832000Y835826D01*
Y839174D01*
X831347Y842459D01*
X830065Y845553D01*
X828205Y848337D01*
X825837Y850705D01*
X823053Y852565D01*
X819959Y853847D01*
X816674Y854500D01*
D02*
G37*
G36*
X1010660Y832645D02*
X1008140D01*
X1005811Y831681D01*
X1004029Y829899D01*
X1003065Y827570D01*
Y825050D01*
X1004029Y822721D01*
X1005811Y820939D01*
X1008140Y819975D01*
X1010660D01*
X1012989Y820939D01*
X1014771Y822721D01*
X1015735Y825050D01*
Y827570D01*
X1014771Y829899D01*
X1012989Y831681D01*
X1010660Y832645D01*
D02*
G37*
G36*
X914296Y824500D02*
X912704D01*
X911234Y823891D01*
X910109Y822766D01*
X909500Y821296D01*
Y819704D01*
X910109Y818234D01*
X911234Y817109D01*
X912704Y816500D01*
X914296D01*
X915766Y817109D01*
X916891Y818234D01*
X917500Y819704D01*
Y821296D01*
X916891Y822766D01*
X915766Y823891D01*
X914296Y824500D01*
D02*
G37*
G36*
X1061460Y822485D02*
X1058940D01*
X1056611Y821521D01*
X1054829Y819738D01*
X1053865Y817410D01*
Y814890D01*
X1054829Y812561D01*
X1056611Y810779D01*
X1058940Y809815D01*
X1061460D01*
X1063789Y810779D01*
X1065571Y812561D01*
X1066535Y814890D01*
Y817410D01*
X1065571Y819738D01*
X1063789Y821521D01*
X1061460Y822485D01*
D02*
G37*
G36*
X1010660Y812325D02*
X1008140D01*
X1005811Y811361D01*
X1004029Y809578D01*
X1003065Y807250D01*
Y804730D01*
X1004029Y802402D01*
X1005811Y800620D01*
X1008140Y799655D01*
X1010660D01*
X1012989Y800620D01*
X1014771Y802402D01*
X1015735Y804730D01*
Y807250D01*
X1014771Y809578D01*
X1012989Y811361D01*
X1010660Y812325D01*
D02*
G37*
G36*
X947395Y803000D02*
X945605D01*
X943951Y802315D01*
X942685Y801049D01*
X942000Y799395D01*
Y797605D01*
X942685Y795951D01*
X943951Y794685D01*
X945605Y794000D01*
X947395D01*
X949049Y794685D01*
X950315Y795951D01*
X951000Y797605D01*
Y799395D01*
X950315Y801049D01*
X949049Y802315D01*
X947395Y803000D01*
D02*
G37*
G36*
X922645D02*
X920855D01*
X919201Y802315D01*
X917935Y801049D01*
X917250Y799395D01*
Y797605D01*
X917935Y795951D01*
X919201Y794685D01*
X920855Y794000D01*
X922645D01*
X924299Y794685D01*
X925565Y795951D01*
X926250Y797605D01*
Y799395D01*
X925565Y801049D01*
X924299Y802315D01*
X922645Y803000D01*
D02*
G37*
G36*
X915296Y792250D02*
X913704D01*
X912234Y791641D01*
X911109Y790516D01*
X910500Y789046D01*
Y787454D01*
X911109Y785984D01*
X912234Y784859D01*
X913704Y784250D01*
X915296D01*
X916766Y784859D01*
X917891Y785984D01*
X918500Y787454D01*
Y789046D01*
X917891Y790516D01*
X916766Y791641D01*
X915296Y792250D01*
D02*
G37*
G36*
X1064796Y789250D02*
X1063204D01*
X1061734Y788641D01*
X1060609Y787516D01*
X1060000Y786046D01*
Y784454D01*
X1060609Y782984D01*
X1061734Y781859D01*
X1063204Y781250D01*
X1064796D01*
X1066266Y781859D01*
X1067391Y782984D01*
X1068000Y784454D01*
Y786046D01*
X1067391Y787516D01*
X1066266Y788641D01*
X1064796Y789250D01*
D02*
G37*
G36*
X1036296Y779500D02*
X1034704D01*
X1033234Y778891D01*
X1032109Y777766D01*
X1031500Y776296D01*
Y774704D01*
X1032109Y773234D01*
X1033234Y772109D01*
X1034704Y771500D01*
X1036296D01*
X1037766Y772109D01*
X1038891Y773234D01*
X1039500Y774704D01*
Y776296D01*
X1038891Y777766D01*
X1037766Y778891D01*
X1036296Y779500D01*
D02*
G37*
G36*
X842296Y771000D02*
X840704D01*
X839234Y770391D01*
X838109Y769266D01*
X837500Y767796D01*
Y766204D01*
X838109Y764734D01*
X839234Y763609D01*
X840704Y763000D01*
X842296D01*
X843766Y763609D01*
X844891Y764734D01*
X845500Y766204D01*
Y767796D01*
X844891Y769266D01*
X843766Y770391D01*
X842296Y771000D01*
D02*
G37*
G36*
X839796Y751500D02*
X838204D01*
X836734Y750891D01*
X835609Y749766D01*
X835000Y748296D01*
Y746704D01*
X835609Y745234D01*
X836734Y744109D01*
X838204Y743500D01*
X839796D01*
X841266Y744109D01*
X842391Y745234D01*
X843000Y746704D01*
Y748296D01*
X842391Y749766D01*
X841266Y750891D01*
X839796Y751500D01*
D02*
G37*
G36*
X878546Y710750D02*
X876954D01*
X875484Y710141D01*
X874359Y709016D01*
X873750Y707546D01*
Y705954D01*
X874359Y704484D01*
X875484Y703359D01*
X876954Y702750D01*
X878546D01*
X880016Y703359D01*
X881141Y704484D01*
X881750Y705954D01*
Y707546D01*
X881141Y709016D01*
X880016Y710141D01*
X878546Y710750D01*
D02*
G37*
G36*
X1127372Y568625D02*
X1125628D01*
X1123943Y568173D01*
X1122432Y567301D01*
X1121199Y566068D01*
X1120327Y564557D01*
X1119875Y562872D01*
Y561128D01*
X1120327Y559443D01*
X1121199Y557932D01*
X1122432Y556699D01*
X1123943Y555826D01*
X1125628Y555375D01*
X1127372D01*
X1129057Y555826D01*
X1130568Y556699D01*
X1131801Y557932D01*
X1132673Y559443D01*
X1133125Y561128D01*
Y562872D01*
X1132673Y564557D01*
X1131801Y566068D01*
X1130568Y567301D01*
X1129057Y568173D01*
X1127372Y568625D01*
D02*
G37*
G36*
X978296Y539500D02*
X976704D01*
X975234Y538891D01*
X974109Y537766D01*
X973500Y536296D01*
Y534704D01*
X974109Y533234D01*
X975234Y532109D01*
X976704Y531500D01*
X978296D01*
X979766Y532109D01*
X980891Y533234D01*
X981500Y534704D01*
Y536296D01*
X980891Y537766D01*
X979766Y538891D01*
X978296Y539500D01*
D02*
G37*
G36*
X940296D02*
X938704D01*
X937234Y538891D01*
X936109Y537766D01*
X935500Y536296D01*
Y534704D01*
X936109Y533234D01*
X937234Y532109D01*
X938704Y531500D01*
X940296D01*
X941766Y532109D01*
X942891Y533234D01*
X943500Y534704D01*
Y536296D01*
X942891Y537766D01*
X941766Y538891D01*
X940296Y539500D01*
D02*
G37*
G36*
X1116674Y554500D02*
X1113326D01*
X1110041Y553847D01*
X1106947Y552565D01*
X1104163Y550705D01*
X1101795Y548337D01*
X1099935Y545552D01*
X1098653Y542459D01*
X1098000Y539174D01*
Y535826D01*
X1098653Y532541D01*
X1099935Y529448D01*
X1101795Y526663D01*
X1104163Y524295D01*
X1106947Y522435D01*
X1110041Y521153D01*
X1113326Y520500D01*
X1116674D01*
X1119959Y521153D01*
X1123053Y522435D01*
X1125837Y524295D01*
X1128205Y526663D01*
X1130065Y529448D01*
X1131347Y532541D01*
X1132000Y535826D01*
Y539174D01*
X1131347Y542459D01*
X1130065Y545552D01*
X1128205Y548337D01*
X1125837Y550705D01*
X1123053Y552565D01*
X1119959Y553847D01*
X1116674Y554500D01*
D02*
G37*
G36*
X816674D02*
X813326D01*
X810041Y553847D01*
X806947Y552565D01*
X804163Y550705D01*
X801795Y548337D01*
X799935Y545552D01*
X798653Y542459D01*
X798000Y539174D01*
Y535826D01*
X798653Y532541D01*
X799935Y529448D01*
X801795Y526663D01*
X804163Y524295D01*
X806947Y522435D01*
X810041Y521153D01*
X813326Y520500D01*
X816674D01*
X819959Y521153D01*
X823053Y522435D01*
X825837Y524295D01*
X828205Y526663D01*
X830065Y529448D01*
X831347Y532541D01*
X832000Y535826D01*
Y539174D01*
X831347Y542459D01*
X830065Y545552D01*
X828205Y548337D01*
X825837Y550705D01*
X823053Y552565D01*
X819959Y553847D01*
X816674Y554500D01*
D02*
G37*
%LPD*%
D67*
X1126500Y562000D02*
D03*
X799750Y816750D02*
D03*
D68*
X1060200Y816150D02*
D03*
X1009400Y805990D02*
D03*
Y826310D02*
D03*
D69*
X1115000Y537500D02*
D03*
X815000D02*
D03*
Y837500D02*
D03*
X1115000D02*
D03*
D70*
X949000Y850250D02*
D03*
X924250Y851000D02*
D03*
X826750Y595500D02*
D03*
X826500Y575750D02*
D03*
X799500Y574750D02*
D03*
X799000Y596900D02*
D03*
X848000Y595000D02*
D03*
X848000Y575750D02*
D03*
X798000Y774100D02*
D03*
Y751950D02*
D03*
Y729800D02*
D03*
Y707650D02*
D03*
X798500Y685500D02*
D03*
X799000Y663350D02*
D03*
Y641200D02*
D03*
X798500Y619050D02*
D03*
X877750Y676000D02*
D03*
X827000Y721500D02*
D03*
X840750Y732500D02*
D03*
X942750Y821250D02*
D03*
X929500Y821500D02*
D03*
X986000Y783000D02*
D03*
X971750Y783250D02*
D03*
X985250Y798500D02*
D03*
X971750Y799000D02*
D03*
X996000Y521250D02*
D03*
X1040000Y522250D02*
D03*
X1080250Y524250D02*
D03*
X1108000Y566250D02*
D03*
X1127250Y589250D02*
D03*
X1124500Y620750D02*
D03*
X1124000Y649000D02*
D03*
X1020250Y691250D02*
D03*
X1030000Y705500D02*
D03*
X961750Y611750D02*
D03*
X939250Y611000D02*
D03*
X961250Y626750D02*
D03*
X939000Y628000D02*
D03*
X883750Y611250D02*
D03*
X883500Y630750D02*
D03*
X798500Y796250D02*
D03*
X1054500Y732750D02*
D03*
X1034750Y732250D02*
D03*
X1066000Y748250D02*
D03*
X1129250Y803500D02*
D03*
X1088750Y838500D02*
D03*
X1073000Y852750D02*
D03*
X1102500Y781750D02*
D03*
X1130000Y780000D02*
D03*
X1066000Y766500D02*
D03*
X1102000Y803500D02*
D03*
X921750Y798500D02*
D03*
X946500D02*
D03*
D71*
X1013721Y846750D02*
D03*
X913500Y820500D02*
D03*
X914500Y788250D02*
D03*
X915000Y766250D02*
D03*
X1035000Y832500D02*
D03*
X1064000Y785250D02*
D03*
X1035500Y775500D02*
D03*
X839000Y747500D02*
D03*
X889500Y727750D02*
D03*
X880750Y767500D02*
D03*
X990750Y665250D02*
D03*
X877750Y706750D02*
D03*
X1022500Y831500D02*
D03*
X841500Y767000D02*
D03*
X929250Y771750D02*
D03*
X1002000Y737000D02*
D03*
X825500Y805250D02*
D03*
X977500Y535500D02*
D03*
X939500D02*
D03*
X940250Y548750D02*
D03*
X911500Y779500D02*
D03*
X1061750Y644250D02*
D03*
X1085500Y632250D02*
D03*
X1074500Y632500D02*
D03*
X970500Y649750D02*
D03*
X1085500Y738000D02*
D03*
X1061500Y652500D02*
D03*
X1099750Y639000D02*
D03*
X1051250Y618500D02*
D03*
X1061250Y672000D02*
D03*
X1077250Y671750D02*
D03*
X843000Y701500D02*
D03*
X826000Y675250D02*
D03*
X872250Y656500D02*
D03*
X876500Y694750D02*
D03*
X957500Y648250D02*
D03*
X824500Y784500D02*
D03*
D72*
X919270Y732010D02*
D03*
X930270D02*
D03*
X941270D02*
D03*
X952270D02*
D03*
X963270D02*
D03*
X919270Y721010D02*
D03*
X930270D02*
D03*
X941270D02*
D03*
X952270D02*
D03*
X963270D02*
D03*
X919270Y710010D02*
D03*
X930270D02*
D03*
X941270D02*
D03*
X952270D02*
D03*
X963270D02*
D03*
X919270Y699010D02*
D03*
X930270D02*
D03*
X941270D02*
D03*
X952270D02*
D03*
X963270D02*
D03*
X919270Y688010D02*
D03*
X930270D02*
D03*
X941270D02*
D03*
X952270D02*
D03*
X963270D02*
D03*
X865000Y805000D02*
D03*
Y794000D02*
D03*
X876000D02*
D03*
Y805000D02*
D03*
M02*
